<svg width="31" height="31" viewBox="0 0 31 31" fill="none" xmlns="http://www.w3.org/2000/svg">
<path fill-rule="evenodd" clip-rule="evenodd" d="M5.20132 5.1375H2.21988V3.2625H6.73845L7.73844 8.26249H29.5932L26.7523 23.8875H8.95132L5.20132 5.1375ZM8.11344 10.1375L10.4885 22.0125H25.1875L27.3465 10.1375H8.11344Z" fill="white"/>
<path d="M12.2199 26.7C12.2199 27.3904 11.6603 27.95 10.9699 27.95C10.2795 27.95 9.71988 27.3904 9.71988 26.7C9.71988 26.0096 10.2795 25.45 10.9699 25.45C11.6603 25.45 12.2199 26.0096 12.2199 26.7Z" fill="white"/>
<path d="M24.7199 27.95C25.4102 27.95 25.9699 27.3904 25.9699 26.7C25.9699 26.0096 25.4102 25.45 24.7199 25.45C24.0296 25.45 23.4699 26.0096 23.4699 26.7C23.4699 27.3904 24.0296 27.95 24.7199 27.95Z" fill="white"/>
</svg>
